# xmcd
#
# Track frame offsets:
#	150
#	16048
#	35715
#	50589
#	71015
#	82848
#	100752
#	110206
#	127735
#	137357
#	155354
#	165654
#	179176
#	190482
#
# Disc length: 2736 seconds
# Revision: 0
# Processed by: cddbd v1.5.2PL0 Copyright (c) Steve Scherf et al.
# Submitted via: dBpowerAMP V12.0
#
DISCID=b90aae0e
DTITLE=Triple L Band - WAO
DYEAR=2008
DGENRE=Bluegrass
TTITLE0=Rocky Top
TTITLE1=Late In The Day
TTITLE2=Preaching, Praying, SInging
TTITLE3=Bed By The Window
TTITLE4=I Don't Care
TTITLE5=Coat of Many Colors
TTITLE6=W.A.O.
TTITLE7=Between The Rows
TTITLE8=Cold Sheets of rain
TTITLE9=Jesus, Hold MY Hand
TTITLE10=A Little Further in the Hole
TTITLE11=Down the Line
TTITLE12=Red Clay Halo
TTITLE13=T For Texas
EXTD=
EXTT0=
EXTT1=
EXTT2=
EXTT3=
EXTT4=
EXTT5=
EXTT6=
EXTT7=
EXTT8=
EXTT9=
EXTT10=
EXTT11=
EXTT12=
EXTT13=
PLAYORDER=
